<svg width="60" height="60" viewBox="0 0 16 16" fill="none" xmlns="http://www.w3.org/2000/svg">
<path d="M0 8C0 3.58172 3.58172 0 8 0C12.4183 0 16 3.58172 16 8C16 12.4183 12.4183 16 8 16C3.58172 16 0 12.4183 0 8Z" fill="#FEB2B2"/>
<path d="M4.94407 12V3.27273H6.75941V6.55398H6.81481C6.89435 6.37784 7.00941 6.19886 7.15998 6.01705C7.31339 5.83239 7.51225 5.67898 7.75657 5.55682C8.00373 5.43182 8.31055 5.36932 8.67702 5.36932C9.1543 5.36932 9.59464 5.49432 9.99805 5.74432C10.4015 5.99148 10.7239 6.36506 10.9654 6.86506C11.2069 7.36222 11.3276 7.9858 11.3276 8.7358C11.3276 9.46591 11.2097 10.0824 10.9739 10.5852C10.7409 11.0852 10.4228 11.4645 10.0194 11.723C9.61879 11.9787 9.16992 12.1065 8.67276 12.1065C8.32049 12.1065 8.02077 12.0483 7.77362 11.9318C7.5293 11.8153 7.32901 11.669 7.17276 11.4929C7.01651 11.3139 6.89719 11.1335 6.81481 10.9517H6.73384V12H4.94407ZM6.72106 8.72727C6.72106 9.11648 6.77504 9.45597 6.88299 9.74574C6.99094 10.0355 7.14719 10.2614 7.35174 10.4233C7.55629 10.5824 7.80487 10.6619 8.09748 10.6619C8.39293 10.6619 8.64293 10.581 8.84748 10.419C9.05202 10.2543 9.20685 10.027 9.31197 9.73722C9.41992 9.4446 9.4739 9.10795 9.4739 8.72727C9.4739 8.34943 9.42134 8.01705 9.31623 7.73011C9.21112 7.44318 9.05629 7.21875 8.85174 7.05682C8.64719 6.89489 8.39577 6.81392 8.09748 6.81392C7.80202 6.81392 7.55202 6.89205 7.34748 7.0483C7.14577 7.20455 6.99094 7.42614 6.88299 7.71307C6.77504 8 6.72106 8.33807 6.72106 8.72727Z" fill="white"/>
</svg>
